<?xml version="1.0" encoding="utf-8"?>
<svg version="1.1" xmlns:xlink="http://www.w3.org/1999/xlink" width="19px" height="30px" xmlns="http://www.w3.org/2000/svg">
  <g transform="matrix(1 0 0 1 -20 -195 )">
    <path d="M 19 4.2803970223325  C 19 4.60297766749379  18.8838481338481 4.88213399503722  18.6515444015444 5.11786600496278  L 8.91312741312741 15  L 18.6515444015444 24.8821339950372  C 18.8838481338481 25.1178660049628  19 25.3970223325062  19 25.7196029776675  C 19 26.0421836228288  18.8838481338481 26.3213399503722  18.6515444015444 26.5570719602978  L 15.6071428571429 29.6464019851117  C 15.3748391248391 29.8821339950372  15.0997425997426 30  14.7818532818533 30  C 14.463963963964 30  14.1888674388674 29.8821339950372  13.9565637065637 29.6464019851117  L 0.348455598455598 15.8374689826303  C 0.116151866151866 15.6017369727047  0 15.3225806451613  0 15  C 0 14.6774193548387  0.116151866151866 14.3982630272953  0.348455598455598 14.1625310173697  L 13.9565637065637 0.353598014888337  C 14.1888674388674 0.117866004962778  14.463963963964 0  14.7818532818533 0  C 15.0997425997426 0  15.3748391248391 0.117866004962778  15.6071428571429 0.353598014888337  L 18.6515444015444 3.44292803970223  C 18.8838481338481 3.67866004962779  19 3.95781637717121  19 4.2803970223325  Z " fill-rule="nonzero" fill="#ffffff" stroke="none" transform="matrix(1 0 0 1 20 195 )" />
  </g>
</svg>