<?xml version="1.0" encoding="utf-8"?>
<svg version="1.1" xmlns:xlink="http://www.w3.org/1999/xlink" width="19px" height="30px" xmlns="http://www.w3.org/2000/svg">
  <g transform="matrix(1 0 0 1 -1856 -195 )">
    <path d="M 19 15  C 19 15.3225806451613  18.8838481338481 15.6017369727047  18.6515444015444 15.8374689826303  L 5.04343629343629 29.6464019851117  C 4.81113256113256 29.8821339950372  4.53603603603604 30  4.21814671814672 30  C 3.9002574002574 30  3.62516087516088 29.8821339950372  3.39285714285714 29.6464019851117  L 0.348455598455598 26.5570719602978  C 0.116151866151866 26.3213399503722  0 26.0421836228288  0 25.7196029776675  C 0 25.3970223325062  0.116151866151866 25.1178660049628  0.348455598455598 24.8821339950372  L 10.0868725868726 15  L 0.348455598455598 5.11786600496278  C 0.116151866151866 4.88213399503722  0 4.60297766749379  0 4.2803970223325  C 0 3.95781637717121  0.116151866151866 3.67866004962779  0.348455598455598 3.44292803970223  L 3.39285714285714 0.353598014888337  C 3.62516087516088 0.117866004962778  3.9002574002574 0  4.21814671814672 0  C 4.53603603603604 0  4.81113256113256 0.117866004962778  5.04343629343629 0.353598014888337  L 18.6515444015444 14.1625310173697  C 18.8838481338481 14.3982630272953  19 14.6774193548387  19 15  Z " fill-rule="nonzero" fill="#ffffff" stroke="none" fill-opacity="0.498039215686275" transform="matrix(1 0 0 1 1856 195 )" />
  </g>
</svg>