<?xml version="1.0" encoding="utf-8"?>
<svg version="1.1" xmlns:xlink="http://www.w3.org/1999/xlink" width="37px" height="35px" xmlns="http://www.w3.org/2000/svg">
  <g transform="matrix(1 0 0 1 -1710 -16 )">
    <path d="M 0 7.5  L 18.5 0  L 37 7.5  L 37 10  L 34.5333333333333 10  C 34.5333333333333 10.3385416666667  34.4016493055556 10.6315104166667  34.13828125 10.87890625  C 33.8749131944444 11.1263020833333  33.5633680555556 11.25  33.2036458333333 11.25  L 3.79635416666667 11.25  C 3.43663194444444 11.25  3.12508680555556 11.1263020833333  2.86171875 10.87890625  C 2.59835069444444 10.6315104166667  2.46666666666667 10.3385416666667  2.46666666666667 10  L 0 10  L 0 7.5  Z M 5 27.5  L 5 12.5  L 10 12.5  L 10 27.5  L 13 27.5  L 13 12.5  L 18 12.5  L 18 27.5  L 19 27.5  L 19 12.5  L 24 12.5  L 24 27.5  L 27 27.5  L 27 12.5  L 32 12.5  L 32 27.5  L 33.2036458333333 27.5  C 33.5633680555556 27.5  33.8749131944444 27.6236979166667  34.13828125 27.87109375  C 34.4016493055556 28.1184895833333  34.5333333333333 28.4114583333333  34.5333333333333 28.75  L 34.5333333333333 30  L 2.46666666666667 30  L 2.46666666666667 28.75  C 2.46666666666667 28.4114583333333  2.59835069444444 28.1184895833333  2.86171875 27.87109375  C 3.12508680555556 27.6236979166667  3.43663194444444 27.5  3.79635416666667 27.5  L 5 27.5  Z M 1.3296875 31  L 35.6703125 31  C 36.0300347222222 31.25  36.3415798611111 31.3736979166667  36.6049479166667 31.62109375  C 36.8683159722222 31.8684895833333  37 32.1614583333333  37 32.5  L 37 35  L 0 35  L 0 32.5  C 0 32.1614583333333  0.131684027777778 31.8684895833333  0.395052083333333 31.62109375  C 0.658420138888889 31.3736979166667  0.969965277777778 31.25  1.3296875 31  Z " fill-rule="nonzero" fill="#808080" stroke="none" transform="matrix(1 0 0 1 1710 16 )" />
  </g>
</svg>